<?xml version="1.0" encoding="UTF-8"?>
<svg xmlns="http://www.w3.org/2000/svg" xmlns:xlink="http://www.w3.org/1999/xlink" width="1920pt" height="1080pt" viewBox="0 0 1920 1080" version="1.1">
<defs>
<g>
<symbol overflow="visible" id="glyph0-0">
<path style="stroke:none;" d="M 0.777344 0 L 0.777344 -6.554688 L 5.417969 -6.554688 L 5.417969 0 Z M 1.472656 -0.695312 L 4.726562 -0.695312 L 4.726562 -5.859375 L 1.472656 -5.859375 Z "/>
</symbol>
<symbol overflow="visible" id="glyph0-1">
<path style="stroke:none;" d="M 0.730469 -2.894531 C 0.726562 -3.238281 0.84375 -3.527344 1.082031 -3.765625 C 1.3125 -3.996094 1.601562 -4.113281 1.953125 -4.117188 C 2.3125 -4.113281 2.609375 -3.996094 2.835938 -3.765625 C 3.0625 -3.527344 3.175781 -3.238281 3.175781 -2.894531 C 3.175781 -2.542969 3.0625 -2.25 2.835938 -2.019531 C 2.609375 -1.785156 2.3125 -1.667969 1.953125 -1.671875 C 1.601562 -1.667969 1.3125 -1.785156 1.082031 -2.023438 C 0.84375 -2.253906 0.726562 -2.546875 0.730469 -2.894531 Z "/>
</symbol>
<symbol overflow="visible" id="glyph0-2">
<path style="stroke:none;" d=""/>
</symbol>
<symbol overflow="visible" id="glyph0-3">
<path style="stroke:none;" d="M 0.304688 -3.527344 L 2.90625 -3.527344 C 3 -3.757812 3.082031 -3.996094 3.160156 -4.25 L 3.898438 -4.25 C 3.8125 -4 3.726562 -3.761719 3.636719 -3.527344 L 8.664062 -3.527344 L 8.664062 -2.921875 L 3.371094 -2.921875 C 3.253906 -2.675781 3.132812 -2.441406 3.007812 -2.21875 L 7.628906 -2.21875 L 7.628906 -1.609375 C 7.136719 -1.03125 6.515625 -0.539062 5.765625 -0.128906 C 6.625 0.160156 7.625 0.335938 8.769531 0.402344 C 8.609375 0.660156 8.472656 0.898438 8.359375 1.117188 C 7.03125 0.964844 5.898438 0.679688 4.960938 0.261719 C 3.964844 0.6875 2.785156 1 1.421875 1.203125 C 1.308594 1.007812 1.175781 0.8125 1.023438 0.613281 C 2.253906 0.453125 3.320312 0.210938 4.21875 -0.117188 C 3.546875 -0.507812 3 -0.988281 2.585938 -1.558594 C 1.996094 -0.703125 1.277344 0.03125 0.425781 0.648438 C 0.3125 0.429688 0.1875 0.21875 0.0507812 0.0117188 C 1.183594 -0.761719 2.042969 -1.738281 2.632812 -2.921875 L 0.304688 -2.921875 Z M 3.777344 -6.117188 L 4.230469 -6.375 C 3.519531 -6.355469 2.777344 -6.335938 2.007812 -6.316406 C 2.273438 -6.042969 2.53125 -5.742188 2.785156 -5.421875 L 2.289062 -5.082031 L 6.585938 -5.082031 L 6.199219 -5.351562 C 6.472656 -5.6875 6.726562 -6.058594 6.960938 -6.464844 L 7.605469 -6.117188 C 7.355469 -5.75 7.097656 -5.402344 6.835938 -5.082031 L 8.378906 -5.082031 L 8.378906 -3.761719 L 7.699219 -3.761719 L 7.699219 -4.476562 L 1.199219 -4.476562 L 1.199219 -3.761719 L 0.519531 -3.761719 L 0.519531 -5.082031 L 2.191406 -5.082031 C 1.960938 -5.394531 1.714844 -5.703125 1.457031 -6.003906 L 1.925781 -6.316406 C 1.539062 -6.304688 1.144531 -6.292969 0.746094 -6.289062 C 0.714844 -6.46875 0.675781 -6.679688 0.625 -6.914062 C 3.402344 -6.929688 5.929688 -7.007812 8.210938 -7.15625 L 8.316406 -6.542969 C 7.128906 -6.480469 5.816406 -6.429688 4.375 -6.386719 C 4.632812 -6.066406 4.871094 -5.746094 5.085938 -5.429688 L 4.488281 -5.101562 C 4.25 -5.480469 4.011719 -5.820312 3.777344 -6.117188 Z M 6.703125 -1.628906 L 3.304688 -1.628906 C 3.761719 -1.144531 4.324219 -0.746094 4.996094 -0.4375 C 5.691406 -0.765625 6.261719 -1.164062 6.703125 -1.628906 Z "/>
</symbol>
<symbol overflow="visible" id="glyph0-4">
<path style="stroke:none;" d="M 0.171875 -3.546875 L 2.4375 -3.546875 L 2.4375 -6.074219 L 0.554688 -6.074219 L 0.554688 -6.757812 L 8.34375 -6.757812 L 8.34375 -6.074219 L 6.570312 -6.074219 L 6.570312 -3.546875 L 8.714844 -3.546875 L 8.714844 -2.859375 L 6.570312 -2.859375 L 6.570312 1.097656 L 5.859375 1.097656 L 5.859375 -2.859375 L 3.148438 -2.859375 C 3.125 -1.800781 2.972656 -1.011719 2.691406 -0.5 C 2.402344 0.0703125 1.753906 0.636719 0.738281 1.210938 C 0.585938 1 0.417969 0.796875 0.242188 0.601562 C 1.125 0.152344 1.71875 -0.316406 2.015625 -0.8125 C 2.277344 -1.207031 2.414062 -1.890625 2.433594 -2.859375 L 0.171875 -2.859375 Z M 3.152344 -3.546875 L 5.859375 -3.546875 L 5.859375 -6.074219 L 3.152344 -6.074219 Z "/>
</symbol>
<symbol overflow="visible" id="glyph0-5">
<path style="stroke:none;" d="M 3.296875 -4.257812 L 8.578125 -4.257812 L 8.578125 -3.617188 L 6.9375 -3.617188 L 6.9375 -0.1875 C 6.9375 0.0859375 7.070312 0.222656 7.335938 0.222656 L 7.605469 0.222656 C 7.886719 0.222656 8.042969 0.0625 8.082031 -0.257812 C 8.121094 -0.503906 8.15625 -0.847656 8.1875 -1.289062 C 8.390625 -1.195312 8.613281 -1.109375 8.855469 -1.039062 C 8.808594 -0.664062 8.761719 -0.335938 8.714844 -0.0546875 C 8.621094 0.558594 8.3125 0.859375 7.785156 0.863281 L 7.1875 0.863281 C 6.558594 0.859375 6.246094 0.546875 6.25 -0.0820312 L 6.25 -3.617188 L 4.996094 -3.617188 C 4.976562 -2.234375 4.820312 -1.238281 4.53125 -0.628906 C 4.195312 0.0976562 3.570312 0.707031 2.65625 1.210938 C 2.523438 1.019531 2.371094 0.8125 2.195312 0.585938 C 3.074219 0.109375 3.648438 -0.425781 3.914062 -1.027344 C 4.160156 -1.488281 4.289062 -2.351562 4.304688 -3.617188 L 3.296875 -3.617188 Z M 0.113281 -0.742188 C 0.503906 -0.839844 0.917969 -0.949219 1.355469 -1.066406 L 1.355469 -3.511719 L 0.269531 -3.511719 L 0.269531 -4.136719 L 1.355469 -4.136719 L 1.355469 -6.082031 L 0.226562 -6.082031 L 0.226562 -6.707031 L 3.132812 -6.707031 L 3.132812 -6.082031 L 2.015625 -6.082031 L 2.015625 -4.136719 L 3.003906 -4.136719 L 3.003906 -3.511719 L 2.015625 -3.511719 L 2.015625 -1.253906 C 2.390625 -1.359375 2.777344 -1.472656 3.175781 -1.601562 C 3.175781 -1.320312 3.179688 -1.09375 3.195312 -0.914062 C 2.339844 -0.660156 1.355469 -0.355469 0.242188 -0.00390625 Z M 3.699219 -6.777344 L 8.109375 -6.777344 L 8.109375 -6.132812 L 3.699219 -6.132812 Z "/>
</symbol>
<symbol overflow="visible" id="glyph0-6">
<path style="stroke:none;" d="M 0.304688 -2.3125 L 3.996094 -2.3125 C 4.042969 -2.597656 4.074219 -2.972656 4.089844 -3.4375 C 3.160156 -3.402344 2.144531 -3.367188 1.050781 -3.335938 C 1.027344 -3.496094 0.980469 -3.714844 0.910156 -3.988281 C 3.75 -4.039062 6.0625 -4.132812 7.839844 -4.273438 L 7.953125 -3.605469 C 7.039062 -3.550781 5.980469 -3.503906 4.769531 -3.464844 C 4.761719 -2.996094 4.730469 -2.613281 4.683594 -2.3125 L 8.613281 -2.3125 L 8.613281 -1.695312 L 4.878906 -1.695312 C 5.6875 -0.554688 6.964844 0.136719 8.714844 0.394531 C 8.507812 0.640625 8.324219 0.886719 8.160156 1.132812 C 6.339844 0.644531 5.078125 -0.222656 4.371094 -1.484375 C 3.855469 -0.226562 2.589844 0.660156 0.582031 1.183594 C 0.457031 0.996094 0.304688 0.777344 0.121094 0.535156 C 2.121094 0.0742188 3.351562 -0.664062 3.816406 -1.695312 L 0.304688 -1.695312 Z M 5.554688 -7.433594 L 6.3125 -7.433594 C 6.1875 -7.125 6.0625 -6.832031 5.933594 -6.550781 L 8.714844 -6.550781 L 8.714844 -5.949219 L 5.636719 -5.949219 C 5.324219 -5.355469 4.984375 -4.832031 4.617188 -4.371094 C 4.488281 -4.507812 4.308594 -4.664062 4.078125 -4.847656 C 4.667969 -5.542969 5.160156 -6.40625 5.554688 -7.433594 Z M 1.832031 -7.433594 L 2.585938 -7.433594 C 2.464844 -7.125 2.335938 -6.832031 2.199219 -6.550781 L 4.714844 -6.550781 L 4.714844 -5.949219 L 1.875 -5.949219 C 1.515625 -5.332031 1.097656 -4.785156 0.625 -4.300781 C 0.496094 -4.433594 0.328125 -4.597656 0.121094 -4.796875 C 0.851562 -5.519531 1.421875 -6.398438 1.832031 -7.433594 Z M 2.828125 -4.371094 C 2.628906 -4.707031 2.386719 -5.066406 2.101562 -5.457031 L 2.605469 -5.769531 C 2.875 -5.425781 3.132812 -5.082031 3.375 -4.734375 Z M 6.746094 -4.429688 C 6.539062 -4.753906 6.292969 -5.101562 6.007812 -5.480469 L 6.503906 -5.792969 C 6.785156 -5.449219 7.046875 -5.113281 7.292969 -4.789062 Z "/>
</symbol>
</g>
</defs>
<g id="surface16">
<g style="fill:rgb(100%,100%,100%);fill-opacity:1;">
  <use xlink:href="#glyph0-1" x="30" y="29.405273"/>
  <use xlink:href="#glyph0-2" x="34" y="29.405273"/>
  <use xlink:href="#glyph0-3" x="37" y="29.405273"/>
  <use xlink:href="#glyph0-4" x="46" y="29.405273"/>
  <use xlink:href="#glyph0-5" x="55" y="29.405273"/>
  <use xlink:href="#glyph0-6" x="64" y="29.405273"/>
</g>
</g>
</svg>
